<?xml version="1.0" encoding="UTF-8" standalone="no"?>
<!-- Created with Inkscape (http://www.inkscape.org/) -->

<svg
   version="1.1"
   id="svg3882"
   xml:space="preserve"
   width="682.66669"
   height="682.66669"
   viewBox="0 0 682.66669 682.66669"
   xmlns="http://www.w3.org/2000/svg"
   xmlns:svg="http://www.w3.org/2000/svg"><defs
     id="defs3886"><clipPath
       clipPathUnits="userSpaceOnUse"
       id="clipPath3900"><path
         d="M 0,512 H 512 V 0 H 0 Z"
         id="path3898" /></clipPath></defs><g
     id="g3888"
     transform="matrix(1.3333333,0,0,-1.3333333,0,682.66667)"><g
       id="g3890"
       transform="translate(323.73,50)"><path
         d="m 0,0 h -0.01 -135.44 -0.01 l -28.27,-40 h 192 z"
         style="fill:#c1b0b5;fill-opacity:1;fill-rule:nonzero;stroke:none"
         id="path3892" /></g><g
       id="g3894"><g
         id="g3896"
         clip-path="url(#clipPath3900)"><g
           id="g3902"
           transform="translate(256,434.2803)"><path
             d="m 0,0 c -0.1,-0.07 -131.37,-101.04 -180,-138.44 v -205.84 h 360 v 205.84 z"
             style="fill:#f3eff0;fill-opacity:1;fill-rule:nonzero;stroke:none"
             id="path3904" /></g><g
           id="g3906"
           transform="translate(256,434.2803)"><path
             d="m 0,0 c -0.048,-0.034 -197.838,-152.159 -197.84,-152.16 -5.77,-4.401 -13.18,-6.75 -21.16,-5.97 -15.08,1.46 -23.32,10.069 -26.21,22.85 -2.83,12.509 2.17,24.11 11.05,30.88 l 216,166 c 10.712,8.162 25.6,8.168 36.32,0 140.08,-107.655 -20.476,15.749 216,-166 7.2,-5.48 11.84,-14.14 11.84,-23.88 0,-16.571 -13.43,-30 -30,-30 -6.83,0 -13.12,2.28 -18.16,6.12 C 189.315,-145.604 8.898,-6.844 0,0"
             style="fill:#ff7b79;fill-opacity:1;fill-rule:nonzero;stroke:none"
             id="path3908" /></g><g
           id="g3910"
           transform="translate(436,129.8398)"><path
             d="M 0,0 C 24.14,-1.92 43.24,-21.08 45.53,-45.13 57.69,-51.99 66,-64.88 66,-79.84 c 0,-22.09 -17.91,-40 -40,-40 H -84 c -16.57,0 -30,13.43 -30,30 0,13.04 8.403,24.116 20.18,28.22 -1.172,23.437 17.608,41.78 39.82,41.78 3.2,0 6.27,-0.47 9.25,-1.18 C -34.158,-6.079 -16.938,1.412 0,0"
             style="fill:#d8ec84;fill-opacity:1;fill-rule:nonzero;stroke:none"
             id="path3912" /></g><g
           id="g3914"
           transform="translate(436,502)"><path
             d="m 0,0 v -130.46 l -0.02,-0.02 -59.98,46.1 V 0 Z"
             style="fill:#c1b0b5;fill-opacity:1;fill-rule:nonzero;stroke:none"
             id="path3916" /></g><g
           id="g3918"
           transform="translate(296,296)"><path
             d="M 0,0 C 23.68,0 40,-20.07 40,-43.84 40,-76.72 7.45,-98.49 -40,-140 c -47.45,41.51 -80,63.28 -80,96.16 0,23.77 16.32,43.84 40,43.84 30.4,0 40,-35 40,-35 0,0 9.6,35 40,35"
             style="fill:#ff7b79;fill-opacity:1;fill-rule:nonzero;stroke:none"
             id="path3920" /></g><g
           id="g3922"
           transform="translate(190,40)"><path
             d="m 0,0 c 0,-16.57 -13.43,-30 -30,-30 h -110 c -22.09,0 -40,17.91 -40,40 0,14.96 8.31,27.85 20.47,34.71 2.29,24.05 21.39,43.21 45.53,45.13 16.958,1.413 34.169,-6.094 44.75,-21.02 2.98,0.71 6.05,1.18 9.25,1.18 22.101,0 40,-17.919 40,-40 0,-0.61 -0.15,-1.18 -0.18,-1.78 C -8.393,24.112 0,13.028 0,0"
             style="fill:#d8ec84;fill-opacity:1;fill-rule:nonzero;stroke:none"
             id="path3924" /></g><g
           id="g3926"
           transform="translate(76,129.8398)"><path
             d="M 0,0 V 166"
             style="fill:none;stroke:#000000;stroke-width:20;stroke-linecap:round;stroke-linejoin:round;stroke-miterlimit:10;stroke-dasharray:none;stroke-opacity:1"
             id="path3928" /></g><g
           id="g3930"
           transform="translate(436,296)"><path
             d="m 0,0 v -0.16 -166 -0.21"
             style="fill:none;stroke:#000000;stroke-width:20;stroke-linecap:round;stroke-linejoin:round;stroke-miterlimit:10;stroke-dasharray:none;stroke-opacity:1"
             id="path3932" /></g><g
           id="g3934"
           transform="translate(256,261)"><path
             d="M 0,0 C 0,0 9.6,35 40,35 63.68,35 80,14.93 80,-8.84 80,-41.72 47.45,-63.49 0,-105 -47.45,-63.49 -80,-41.72 -80,-8.84 -80,14.93 -63.68,35 -40,35 -9.6,35 0,0 0,0 Z"
             style="fill:none;stroke:#000000;stroke-width:20;stroke-linecap:round;stroke-linejoin:round;stroke-miterlimit:10;stroke-dasharray:none;stroke-opacity:1"
             id="path3936" /></g><g
           id="g3938"
           transform="translate(376,417.6201)"><path
             d="M 0,0 V 84.38 H 60 V -46.08"
             style="fill:none;stroke:#000000;stroke-width:20;stroke-linecap:round;stroke-linejoin:round;stroke-miterlimit:10;stroke-dasharray:none;stroke-opacity:1"
             id="path3940" /></g><g
           id="g3942"
           transform="translate(352,10)"><path
             d="m 0,0 c -16.57,0 -30,13.43 -30,30 0,3.52 0.61,6.88 1.73,10 3.04,8.52 9.87,15.23 18.45,18.22 -0.03,0.6 -0.18,1.17 -0.18,1.78 0,7.28 1.95,14.11 5.35,20 6.92,11.96 19.85,20 34.65,20 3.2,0 6.27,-0.47 9.25,-1.18 C 48.31,111.6 63.14,120 80,120 c 1.35,0 2.68,-0.05 4,-0.16 24.14,-1.92 43.24,-21.08 45.53,-45.13 C 141.69,67.85 150,54.96 150,40 150,17.91 132.09,0 110,0 H 0 -192 -302 c -22.09,0 -40,17.91 -40,40 0,14.96 8.31,27.85 20.47,34.71 2.29,24.05 21.39,43.21 45.53,45.13 1.32,0.11 2.65,0.16 4,0.16 16.86,0 31.69,-8.4 40.75,-21.18 2.98,0.71 6.05,1.18 9.25,1.18 14.8,0 27.73,-8.04 34.65,-20 3.4,-5.89 5.35,-12.72 5.35,-20 0,-0.61 -0.15,-1.18 -0.18,-1.78 8.58,-2.99 15.41,-9.7 18.45,-18.22 1.12,-3.12 1.73,-6.48 1.73,-10 0,-16.57 -13.43,-30 -30,-30"
             style="fill:none;stroke:#000000;stroke-width:20;stroke-linecap:round;stroke-linejoin:round;stroke-miterlimit:10;stroke-dasharray:none;stroke-opacity:1"
             id="path3944" /></g><g
           id="g3946"
           transform="translate(323.7202,50)"><path
             d="M 0,0 H -135.44"
             style="fill:none;stroke:#000000;stroke-width:20;stroke-linecap:round;stroke-linejoin:round;stroke-miterlimit:10;stroke-dasharray:none;stroke-opacity:1"
             id="path3948" /></g><g
           id="g3950"
           transform="translate(347.3501,90)"><path
             d="M 0,0 H -182.7"
             style="fill:none;stroke:#000000;stroke-width:20;stroke-linecap:round;stroke-linejoin:round;stroke-miterlimit:10;stroke-dasharray:none;stroke-opacity:1"
             id="path3952" /></g><g
           id="g3954"
           transform="translate(136,410)"><path
             d="m 0,0 c 0,-5.522 -4.477,-10 -10,-10 -5.523,0 -10,4.478 -10,10 0,5.522 4.477,10 10,10 C -4.477,10 0,5.522 0,0"
             style="fill:#000000;fill-opacity:1;fill-rule:nonzero;stroke:none"
             id="path3956" /></g><g
           id="g3958"
           transform="translate(90.3682,382.5449)"><path
             d="m 0,0 -68.528,-52.665 c -8.88,-6.77 -13.88,-18.37 -11.05,-30.88 2.89,-12.78 11.13,-21.39 26.21,-22.85 7.98,-0.78 15.39,1.57 21.16,5.97 0.02,0.01 6.8,5.23 17.84,13.72 48.63,37.4 179.9,138.37 180,138.44 l 180,-138.44 17.84,-13.72 c 5.04,-3.84 11.33,-6.12 18.16,-6.12 16.57,0 30,13.43 30,30 0,9.74 -4.64,18.4 -11.84,23.88 l -54.18,41.64 -59.98,46.1 -101.84,78.26 c -5.04,3.84 -11.33,6.12 -18.16,6.12 -6.83,0 -13.12,-2.28 -18.16,-6.12 L 71.333,54.82"
             style="fill:none;stroke:#000000;stroke-width:20;stroke-linecap:round;stroke-linejoin:round;stroke-miterlimit:10;stroke-dasharray:none;stroke-opacity:1"
             id="path3960" /></g></g></g></g></svg>
