<?xml version="1.0" encoding="UTF-8"?>
<svg xmlns="http://www.w3.org/2000/svg" id="Layer_3" data-name="Layer 3" viewBox="0 0 64 64" width="512" height="512"><circle cx="15" cy="49" r="13" style="fill:#f9cb5d"/><path d="M15,36a12.942,12.942,0,0,0-8.669,3.331A12.985,12.985,0,0,0,24.669,57.669,12.985,12.985,0,0,0,15,36Z" style="fill:#ffd98c"/><circle cx="15" cy="49" r="9" style="fill:#f79b31"/><path d="M14,41a8.955,8.955,0,0,0-5.84,2.16A8.993,8.993,0,0,0,20.84,55.84,8.993,8.993,0,0,0,14,41Z" style="fill:#fcb732"/><circle cx="49" cy="49" r="13" style="fill:#f9cb5d"/><path d="M49,36a12.942,12.942,0,0,1,8.669,3.331A12.985,12.985,0,0,1,39.331,57.669,12.985,12.985,0,0,1,49,36Z" style="fill:#ffd98c"/><circle cx="49" cy="49" r="9" style="fill:#f79b31"/><path d="M50,41a8.955,8.955,0,0,1,5.84,2.16A8.993,8.993,0,0,1,43.16,55.84,8.993,8.993,0,0,1,50,41Z" style="fill:#fcb732"/><path d="M35.3,17.321a17.008,17.008,0,1,0,9.188,5.148" style="fill:#ffd98c"/><path d="M35.3,17.321a17,17,0,0,0-14.276,3.706A16.99,16.99,0,0,0,44.973,44.973a16.982,16.982,0,0,0-.482-22.5Z" style="fill:#ffe1ae"/><circle cx="32" cy="34" r="13" style="fill:#fcb732"/><path d="M31,22a12.942,12.942,0,0,0-8.669,3.331A12.985,12.985,0,0,0,40.669,43.669,12.985,12.985,0,0,0,31,22Z" style="fill:#ffc76f"/><path d="M32,32a1,1,0,1,1,1-1h4a5,5,0,0,0-3-4.576V25H30v1.424A5,5,0,0,0,32,36a1,1,0,1,1-1,1H27a5,5,0,0,0,3,4.576V43h4V41.576A5,5,0,0,0,32,32Z" style="fill:#fcb732"/><path d="M15,48a1,1,0,1,1,1-1h2a3,3,0,0,0-2-2.816V43H14v1.184A2.993,2.993,0,0,0,15,50a1,1,0,1,1-1,1H12a3,3,0,0,0,2,2.816V55h2V53.816A2.993,2.993,0,0,0,15,48Z" style="fill:#f79b31"/><path d="M49,48a1,1,0,1,1,1-1h2a3,3,0,0,0-2-2.816V43H48v1.184A2.993,2.993,0,0,0,49,50a1,1,0,1,1-1,1H46a3,3,0,0,0,2,2.816V55h2V53.816A2.993,2.993,0,0,0,49,48Z" style="fill:#f79b31"/><polygon points="62 2 50 7 52 9 42 19 26 2 2 21 4 24 25.999 7 42.096 24.856 54.997 11.997 57 14 62 2" style="fill:#e73844"/><polygon points="25.999 5 42 22 62 2 50 7 52 9 42 19 26 2 2 21 2.889 22.333 25.999 5" style="fill:#ff4d55"/><path d="M44.422,27.538l-1.773.924a11.986,11.986,0,1,1-6.957-5.883l.616-1.9a14,14,0,1,0,8.114,6.863Z"/><path d="M38,31a6,6,0,0,0-3-5.189V25a1,1,0,0,0-1-1H30a1,1,0,0,0-1,1v.811A5.991,5.991,0,0,0,28.687,36H27a1,1,0,0,0-1,1,6,6,0,0,0,3,5.189V43a1,1,0,0,0,1,1h4a1,1,0,0,0,1-1v-.811A5.991,5.991,0,0,0,35.313,32H37A1,1,0,0,0,38,31Zm-4.269-1A2,2,0,1,0,32,33a4,4,0,0,1,1.6,7.661,1,1,0,0,0-.6.915V42H31v-.424a1,1,0,0,0-.6-.915A4.017,4.017,0,0,1,28.128,38h2.141A2,2,0,1,0,32,35a4,4,0,0,1-1.6-7.661,1,1,0,0,0,.6-.915V26h2v.424a1,1,0,0,0,.6.915A4.017,4.017,0,0,1,35.872,30Z"/><path d="M15,52a1,1,0,0,1-1-1H12a3,3,0,0,0,2,2.816V55h2V53.816A2.993,2.993,0,0,0,15,48a1,1,0,1,1,1-1h2a3,3,0,0,0-2-2.816V43H14v1.184A2.993,2.993,0,0,0,15,50a1,1,0,0,1,0,2Z"/><path d="M49,63a13.992,13.992,0,0,0,.947-27.952C49.967,34.7,50,34.354,50,34a17.924,17.924,0,0,0-4.153-11.471L55,13.41l1.3,1.3a1,1,0,0,0,1.63-.322l5-12a1,1,0,0,0-1.308-1.308l-12,5a1,1,0,0,0-.322,1.63L50.586,9l-8.564,8.564L26.728,1.314a1,1,0,0,0-1.349-.1l-24,19a1,1,0,0,0-.211,1.339l2,3a1,1,0,0,0,1.443.237L25.877,8.358,32.8,16.039c-.267-.012-.534-.039-.8-.039A18.021,18.021,0,0,0,14,34c0,.354.033.7.053,1.048a13.992,13.992,0,1,0,14.68,16.64,17.251,17.251,0,0,0,6.527,0A13.949,13.949,0,0,0,49,63ZM61,49a12,12,0,0,1-23.789,2.224,17.538,17.538,0,0,0,1.917-.7A9.994,9.994,0,1,0,49.275,39.014a17.544,17.544,0,0,0,.448-1.977A12.005,12.005,0,0,1,61,49ZM48.57,41.026c.144-.007.287-.026.43-.026a8,8,0,1,1-7.972,8.548A18.1,18.1,0,0,0,48.57,41.026ZM26,6a.994.994,0,0,0-.611.208L4.237,22.553l-.894-1.341L25.9,3.354,41.272,19.686a1,1,0,0,0,.713.314.956.956,0,0,0,.722-.293l10-10a1,1,0,0,0,0-1.414l-.944-.944,8.38-3.492-3.492,8.38L55.7,11.29a1,1,0,0,0-1.413,0L42.134,23.406,26.742,6.331A1,1,0,0,0,26,6ZM15.43,41.026a18.1,18.1,0,0,0,7.542,8.522A8,8,0,1,1,15,41C15.143,41,15.286,41.019,15.43,41.026ZM15,61a11.992,11.992,0,0,1-.723-23.963,17.544,17.544,0,0,0,.448,1.977A9.995,9.995,0,1,0,24.872,50.521a17.66,17.66,0,0,0,1.912.7A11.982,11.982,0,0,1,15,61Zm1-27A15.953,15.953,0,0,1,34.8,18.256l6.553,7.27a1,1,0,0,0,.716.33H42.1a1,1,0,0,0,.706-.292l1.625-1.62A15.994,15.994,0,1,1,16,34Z"/><path d="M49,52a1,1,0,0,1-1-1H46a3,3,0,0,0,2,2.816V55h2V53.816A2.993,2.993,0,0,0,49,48a1,1,0,1,1,1-1h2a3,3,0,0,0-2-2.816V43H48v1.184A2.993,2.993,0,0,0,49,50a1,1,0,0,1,0,2Z"/></svg>
