<svg height="512" viewBox="0 0 128 128" width="512" xmlns="http://www.w3.org/2000/svg"><g><path d="m16.885 64c0 4.662 8.351 7.946 9.717 12.152 1.416 4.36-3.361 11.917-.72 15.545 2.667 3.665 11.348 1.444 15.013 4.111 3.628 2.641 4.183 11.6 8.542 13.012 4.207 1.366 9.9-5.509 14.563-5.509s10.356 6.875 14.563 5.509c4.359-1.415 4.913-10.371 8.542-13.012 3.665-2.667 12.346-.445 15.013-4.11 2.641-3.629-2.136-11.186-.72-15.546 1.366-4.206 9.717-7.49 9.717-12.152s-8.351-7.946-9.717-12.152c-1.416-4.36 3.361-11.917.72-15.545-2.667-3.665-11.348-1.444-15.013-4.111-3.628-2.641-4.183-11.6-8.542-13.012-4.207-1.366-9.9 5.509-14.563 5.509s-10.356-6.875-14.563-5.509c-4.359 1.42-4.913 10.371-8.537 13.012-3.665 2.667-12.346.445-15.013 4.11-2.641 3.629 2.136 11.186.72 15.546-1.371 4.206-9.722 7.49-9.722 12.152z" fill="#3f8efc"/><path d="m59.88 80.021a5.187 5.187 0 0 0 3.679-1.521l19.841-19.844a5.2 5.2 0 0 0 -7.359-7.356l-16.161 16.16-7.922-7.92a5.2 5.2 0 1 0 -7.358 7.36l11.6 11.6a5.187 5.187 0 0 0 3.68 1.521z" fill="#f8f9e8"/><g fill="#0a0a63"><path d="m20.82 55.808c-2.8 2.361-5.685 4.8-5.685 8.192s2.89 5.831 5.685 8.192c1.8 1.521 3.661 3.094 4.118 4.5.492 1.516-.1 3.962-.672 6.328-.842 3.479-1.712 7.077.2 9.706 1.933 2.656 5.647 2.937 9.239 3.208 2.408.182 4.9.37 6.159 1.288 1.234.9 2.169 3.187 3.073 5.4 1.374 3.359 2.792 6.833 5.959 7.861 3.042.987 6.16-.933 9.177-2.791 2.1-1.3 4.277-2.633 5.926-2.633s3.823 1.339 5.926 2.633c2.451 1.509 4.969 3.059 7.457 3.059a5.541 5.541 0 0 0 1.72-.268 7.543 7.543 0 0 0 4.098-3.783c.319-.559.628-1.179.973-1.952a1.75 1.75 0 0 0 -3.2-1.428c-.294.658-.562 1.2-.82 1.65a4.353 4.353 0 0 1 -2.132 2.189c-1.5.491-3.92-1-6.26-2.442-2.518-1.55-5.121-3.153-7.761-3.153s-5.243 1.6-7.761 3.153c-2.339 1.441-4.76 2.93-6.261 2.442-1.622-.527-2.729-3.236-3.8-5.856-1.09-2.667-2.216-5.424-4.255-6.907-2.065-1.5-5.059-1.729-7.954-1.948-2.8-.211-5.693-.43-6.673-1.778-.961-1.319-.284-4.117.371-6.823.686-2.839 1.4-5.774.6-8.232-.765-2.356-3.014-4.256-5.188-6.093s-4.444-3.758-4.444-5.522 2.259-3.673 4.444-5.519 4.423-3.737 5.188-6.093c.8-2.458.088-5.394-.6-8.233-.654-2.7-1.332-5.5-.371-6.823.981-1.348 3.874-1.566 6.672-1.777 2.9-.219 5.89-.445 7.956-1.948 2.038-1.483 3.165-4.241 4.254-6.907 1.071-2.62 2.178-5.329 3.8-5.856 1.5-.49 3.921 1 6.261 2.442 2.518 1.55 5.121 3.153 7.761 3.153s5.243-1.6 7.761-3.153c2.34-1.44 4.757-2.928 6.261-2.442 1.622.527 2.728 3.236 3.8 5.856 1.089 2.667 2.216 5.424 4.255 6.907 2.065 1.5 5.059 1.729 7.954 1.948 2.8.211 5.693.43 6.673 1.778.961 1.319.283 4.117-.371 6.823-.686 2.839-1.4 5.774-.6 8.232.765 2.356 3.014 4.256 5.188 6.093s4.444 3.755 4.444 5.519-2.259 3.673-4.444 5.519-4.423 3.737-5.188 6.093c-.8 2.458-.087 5.394.6 8.233.654 2.7 1.332 5.5.371 6.822a3.577 3.577 0 0 1 -2.013 1.159 1.75 1.75 0 0 0 .944 3.37 6.861 6.861 0 0 0 3.9-2.468c1.913-2.63 1.043-6.227.2-9.707-.573-2.365-1.165-4.812-.672-6.328.457-1.407 2.318-2.98 4.118-4.5 2.795-2.361 5.685-4.8 5.685-8.192s-2.89-5.831-5.685-8.192c-1.8-1.521-3.661-3.094-4.118-4.5-.493-1.516.1-3.962.672-6.328.842-3.479 1.712-7.077-.2-9.706-1.932-2.656-5.647-2.937-9.239-3.208-2.408-.182-4.9-.37-6.159-1.288-1.234-.9-2.169-3.187-3.074-5.4-1.373-3.359-2.792-6.833-5.957-7.861-3.044-.988-6.162.934-9.178 2.791-2.1 1.294-4.277 2.633-5.926 2.633s-3.823-1.338-5.926-2.633c-3.017-1.858-6.135-3.779-9.177-2.791-3.166 1.028-4.585 4.5-5.958 7.861-.9 2.214-1.839 4.5-3.074 5.4-1.261.918-3.751 1.106-6.159 1.287-3.592.272-7.306.552-9.239 3.208-1.913 2.629-1.043 6.227-.2 9.706.572 2.366 1.165 4.813.672 6.329-.46 1.405-2.321 2.978-4.121 4.499z"/><path d="m87.105 97.558a1.75 1.75 0 0 0 1.029-.334 5.229 5.229 0 0 1 1.889-.768 1.75 1.75 0 0 0 -.8-3.407 8.609 8.609 0 0 0 -3.148 1.344 1.75 1.75 0 0 0 1.03 3.165z"/><path d="m50.721 60.778 7.922 7.92a1.75 1.75 0 0 0 2.474 0l5.707-5.706a1.75 1.75 0 0 0 -2.474-2.475l-4.47 4.469-6.68-6.686a6.952 6.952 0 1 0 -9.833 9.831l11.6 11.6a6.952 6.952 0 0 0 9.833 0l19.841-19.84a6.953 6.953 0 1 0 -9.841-9.829l-4.784 4.788a1.749 1.749 0 1 0 2.474 2.474l4.788-4.787a3.452 3.452 0 1 1 4.884 4.881l-19.84 19.841a3.537 3.537 0 0 1 -4.884 0l-11.6-11.6a3.452 3.452 0 0 1 0-4.882 3.536 3.536 0 0 1 4.883.001z"/></g></g></svg>