<svg id="Layer_1" viewBox="0 0 512 512" xmlns="http://www.w3.org/2000/svg" data-name="Layer 1"><path d="m392.15 368.946v-263.983c0-30.644-24.93-55.573-55.573-55.573h-65.783c-3.021-22.212-22.1-39.39-45.128-39.39s-42.106 17.177-45.127 39.39h-65.784c-30.644 0-55.573 24.93-55.573 55.573v312.196c0 30.644 24.93 55.573 55.573 55.573h216.235c12.006 17.65 32.25 29.268 55.16 29.268 36.761 0 66.668-29.907 66.668-66.668 0-34.738-26.709-63.34-60.668-66.386zm-12-263.983v263.983c-5.577.5-10.956 1.689-16.056 3.483v-267.466c0-15.173-12.345-27.518-27.518-27.518h-65.354v-16.056h65.354c24.026 0 43.573 19.547 43.573 43.573zm-60.602 327.714h-204.793c-8.557 0-15.518-6.961-15.518-15.518v-312.196c0-8.557 6.961-15.518 15.518-15.518h47.059v22.126c0 3.313 2.687 6 6 6h115.703c3.313 0 6-2.687 6-6v-22.126h47.06c8.557 0 15.518 6.961 15.518 15.518v273.084c-18.797 11.217-31.631 31.414-32.546 54.629zm-42.031-343.231v16.126h-103.703v-16.126zm-51.85-67.446c18.503 0 33.556 15.054 33.556 33.557v21.889h-67.112v-21.889c0-18.503 15.054-33.557 33.557-33.557zm-110.912 438.732c-24.026 0-43.573-19.547-43.573-43.573v-312.196c0-24.026 19.547-43.573 43.573-43.573h65.354v16.056h-65.354c-15.173 0-27.518 12.345-27.518 27.518v312.195c0 15.173 12.345 27.518 27.518 27.518h205.394c.79 5.604 2.274 10.986 4.372 16.056h-209.766zm271.395 29.268c-30.145 0-54.669-24.524-54.669-54.668s24.524-54.669 54.669-54.669 54.668 24.524 54.668 54.669-24.524 54.668-54.668 54.668zm34.697-54.669c0 3.313-2.687 6-6 6h-22.698v22.698c0 3.313-2.687 6-6 6s-6-2.687-6-6v-22.698h-22.697c-3.313 0-6-2.687-6-6s2.687-6 6-6h22.697v-22.697c0-3.313 2.687-6 6-6s6 2.687 6 6v22.697h22.698c3.313 0 6 2.687 6 6zm-296.368-250.782c0-3.313 2.687-6 6-6h121.949c3.313 0 6 2.687 6 6s-2.687 6-6 6h-121.949c-3.313 0-6-2.687-6-6zm0 34.949c0-3.313 2.687-6 6-6h176.178c3.313 0 6 2.687 6 6s-2.687 6-6 6h-176.178c-3.313 0-6-2.687-6-6zm0-69.898c0-3.313 2.687-6 6-6h95.188c3.313 0 6 2.687 6 6s-2.687 6-6 6h-95.188c-3.313 0-6-2.687-6-6zm182.309 99.062h-162.245c-11.063 0-20.064 9.001-20.064 20.065v37.72c0 11.063 9.001 20.064 20.064 20.064h162.244c11.063 0 20.064-9.001 20.064-20.064v-37.72c0-11.064-9.001-20.065-20.064-20.065zm8.064 57.785c0 4.446-3.618 8.064-8.064 8.064h-162.245c-4.446 0-8.064-3.618-8.064-8.064v-37.72c0-4.447 3.618-8.065 8.064-8.065h162.244c4.446 0 8.064 3.618 8.064 8.065v37.72zm1.944 43.228h-41.407c-5.545 0-10.056 4.511-10.056 10.056v10.878c0 5.545 4.511 10.056 10.056 10.056h41.407c5.545 0 10.056-4.511 10.056-10.056v-10.878c0-5.545-4.511-10.056-10.056-10.056zm-1.944 18.989h-37.519v-6.989h37.519zm-68.482-18.989h-41.407c-5.545 0-10.057 4.511-10.057 10.056v10.878c0 5.545 4.512 10.056 10.057 10.056h41.407c5.545 0 10.056-4.511 10.056-10.056v-10.878c0-5.545-4.511-10.056-10.056-10.056zm-1.944 18.989h-37.52v-6.989h37.52zm-68.482-18.989h-41.408c-5.545 0-10.056 4.511-10.056 10.056v10.878c0 5.545 4.511 10.056 10.056 10.056h41.408c5.545 0 10.056-4.511 10.056-10.056v-10.878c0-5.545-4.511-10.056-10.056-10.056zm-1.944 18.989h-37.52v-6.989h37.52z"/></svg>