<svg id="Layer_1" enable-background="new 0 0 512 512" height="512" viewBox="0 0 512 512" width="512" xmlns="http://www.w3.org/2000/svg"><path d="m423.459 113.219c7.769-7.235 12.64-17.541 12.64-28.969 0-21.835-17.765-39.6-39.6-39.6-21.836 0-39.601 17.765-39.601 39.6 0 11.428 4.872 21.734 12.641 28.969-25.535 10.609-43.541 35.803-43.541 65.131 0 4.418 3.582 8 8 8h125.002c4.418 0 8-3.582 8-8 0-29.328-18.006-54.522-43.541-65.131zm-50.56-28.969c0-13.013 10.587-23.6 23.601-23.6 13.013 0 23.6 10.587 23.6 23.6s-10.587 23.6-23.6 23.6c-13.014 0-23.601-10.587-23.601-23.6zm-30.314 86.101c3.88-26.274 26.579-46.5 53.915-46.5 27.335 0 50.034 20.227 53.914 46.5zm-166.43-32.995-27.356-10.264c-4.544-1.706-9.486-1.171-13.564 1.468l-8.759 5.673c-5.916-3.788-11.446-8.245-16.444-13.252l-.011-.011c-5.009-5-9.465-10.53-13.253-16.444l5.676-8.762c2.637-4.076 3.171-9.018 1.466-13.56l-10.265-27.358c-1.618-4.313-5.042-7.618-9.394-9.068-4.354-1.45-9.074-.858-12.956 1.621l-14.319 9.149c-9.428 6.023-13.842 16.945-11.244 27.825 5.799 24.301 18.415 46.595 36.425 64.411 17.878 18.07 40.172 30.687 64.471 36.485 2.072.495 4.145.735 6.186.735 8.676 0 16.764-4.346 21.639-11.977l9.152-14.322c2.479-3.882 3.07-8.604 1.62-12.956-1.452-4.351-4.757-7.775-9.07-9.393zm-15.185 28.056c-2.336 3.657-6.413 5.302-10.629 4.295-21.391-5.105-41.036-16.231-56.872-32.236-15.943-15.774-27.069-35.419-32.175-56.812-1.007-4.219.639-8.292 4.297-10.628l13.44-8.587 9.749 25.984-5.736 8.856c-3.252 5.022-3.286 11.283-.089 16.338 4.481 7.086 9.783 13.703 15.757 19.667 5.963 5.973 12.58 11.275 19.668 15.757 5.059 3.198 11.318 3.163 16.338-.089l8.856-5.736 25.984 9.75zm293.03 115.588h-115.001c-31.981 0-58 26.019-58 58v115c0 31.981 26.019 58 58 58h115.001c31.981 0 58-26.019 58-58v-115.001c0-31.981-26.019-57.999-58-57.999zm42 173c0 23.159-18.841 42-42 42h-115.001c-23.159 0-42-18.841-42-42v-115.001c0-23.159 18.841-42 42-42h115.001c23.159 0 42 18.841 42 42zm-42-454h-115.001c-31.981 0-58 26.019-58 58v115.001c0 31.981 26.019 58 58 58h115.001c31.981 0 58-26.019 58-58v-115.001c0-31.981-26.019-58-58-58zm42 173.001c0 23.159-18.841 42-42 42h-115.001c-23.159 0-42-18.841-42-42v-115.001c0-23.159 18.841-42 42-42h115.001c23.159 0 42 18.841 42 42zm-322.999 107.999h-115.001c-31.981 0-58 26.019-58 58v115c0 31.981 26.019 58 58 58h115.001c31.981 0 58-26.019 58-58v-115.001c0-31.981-26.019-57.999-58-57.999zm42 173c0 23.159-18.841 42-42 42h-115.001c-23.159 0-42-18.841-42-42v-115.001c0-23.159 18.841-42 42-42h115.001c23.159 0 42 18.841 42 42zm-42-454h-115.001c-31.981 0-58 26.019-58 58v115.001c0 31.981 26.019 58 58 58h115.001c31.981 0 58-26.019 58-58v-115.001c0-31.981-26.019-58-58-58zm42 173.001c0 23.159-18.841 42-42 42h-115.001c-23.159 0-42-18.841-42-42v-115.001c0-23.159 18.841-42 42-42h115.001c23.159 0 42 18.841 42 42zm181.499 149.435c-38.874 0-70.5 31.626-70.5 70.5 0 14.027 4.048 27.42 11.746 38.979l-7.657 28.577c-.739 2.761.05 5.706 2.07 7.727 1.521 1.52 3.563 2.343 5.657 2.343.69 0 1.387-.089 2.07-.272l36.479-9.774c6.513 1.938 13.274 2.92 20.135 2.92 38.874 0 70.5-31.626 70.5-70.5s-31.626-70.5-70.5-70.5zm0 125c-5.956 0-11.81-.954-17.397-2.834-1.492-.502-3.101-.552-4.622-.146l-25.351 6.793 5.041-18.813c.635-2.371.146-4.901-1.324-6.866-7.096-9.475-10.847-20.76-10.847-32.635 0-30.051 24.448-54.5 54.5-54.5s54.5 24.449 54.5 54.5-24.448 54.501-54.5 54.501zm9.5-55.91c0 5.246-4.253 9.5-9.5 9.5-5.246 0-9.5-4.254-9.5-9.5s4.254-9.5 9.5-9.5 9.5 4.254 9.5 9.5zm-34.125 0c0 5.246-4.253 9.5-9.5 9.5s-9.5-4.254-9.5-9.5 4.253-9.5 9.5-9.5 9.5 4.254 9.5 9.5zm58.75-9.5c5.246 0 9.5 4.254 9.5 9.5s-4.254 9.5-9.5 9.5c-5.247 0-9.5-4.254-9.5-9.5s4.253-9.5 9.5-9.5zm-265.226-35.109h-99.797c-11.359 0-20.602 9.241-20.602 20.601v57.964c0 11.359 9.242 20.601 20.602 20.601h99.798c11.359 0 20.601-9.242 20.601-20.601v-57.964c-.001-11.36-9.242-20.601-20.602-20.601zm-49.899 39.974-36.033-23.974h72.066zm-23.45 3.616-31.05 29.11v-49.768zm13.683 9.104 5.335 3.549c1.343.893 2.887 1.339 4.432 1.339 1.544 0 3.089-.447 4.432-1.339l5.335-3.549 32.503 30.472h-84.539zm33.217-9.104 31.05-20.658v49.767z"/></svg>