<svg width="885" height="146" viewBox="0 0 885 146" fill="none" xmlns="http://www.w3.org/2000/svg">
<path d="M0 142.992C1.67673 142.597 3.73154 140.674 6.18088 137.221C8.63022 133.768 11.1453 129.723 13.759 125.071C16.3728 120.418 18.8878 115.518 21.2879 110.355C23.7043 105.209 25.7098 100.721 27.3208 96.9062L66.6582 0H73.3815L112.637 96.9062C114.313 100.721 116.352 105.209 118.768 110.355C121.168 115.518 123.667 120.418 126.248 125.071C128.829 129.723 131.36 133.768 133.826 137.221C136.308 140.674 138.379 142.597 140.056 142.992V143.995H75.0911V142.992C76.7021 142.597 77.6391 141.019 77.9021 138.273C78.1651 135.527 77.9679 132.091 77.2939 127.981C76.6199 123.87 75.6007 119.365 74.2363 114.482C72.8719 109.599 71.3431 104.979 69.6664 100.622L69.4691 99.8164H33.1236C31.8578 104.173 31.3976 108.826 31.7756 113.775C32.1373 118.724 32.9263 123.295 34.1428 127.487C35.3428 131.68 36.8551 135.198 38.6634 138.076C40.4716 140.953 42.1812 142.597 43.7922 142.992V143.995H0V142.992ZM67.0527 93.585L51.1895 54.7173L35.3264 93.585H67.0527Z" fill="#FE5668"/>
<path d="M156.511 48.2065C156.511 44.4578 156.445 40.7092 156.314 36.9605C156.182 33.2118 155.821 29.8578 155.262 26.9147C154.686 23.9717 153.864 21.5548 152.796 19.6805C151.727 17.8061 150.215 16.869 148.275 16.869V15.8661C158.582 14.7974 167.804 12.923 175.941 10.2431C184.078 7.56309 190.95 4.1597 196.572 0H197.673V95.9033C197.673 99.5862 197.805 104.042 198.068 109.254C198.331 114.466 198.807 119.48 199.481 124.265C200.155 129.049 201.01 133.275 202.046 136.925C203.081 140.575 204.331 142.597 205.81 142.992V143.995H148.275V142.992C149.821 142.597 151.086 140.558 152.089 136.925C153.092 133.275 153.947 129.066 154.654 124.265C155.36 119.48 155.837 114.466 156.1 109.254C156.363 104.042 156.495 99.5862 156.495 95.9033V48.2065H156.511Z" fill="#FE5668"/>
<path d="M226.391 48.2065C226.391 44.4578 226.326 40.7092 226.194 36.9605C226.063 33.2118 225.701 29.8578 225.142 26.9147C224.567 23.9717 223.745 21.5548 222.676 19.6805C221.608 17.8061 220.095 16.869 218.156 16.869V15.8661C228.463 14.7974 237.685 12.923 245.822 10.2431C253.959 7.56309 260.83 4.1597 266.452 0H267.553V95.9033C267.553 99.5862 267.685 104.042 267.948 109.254C268.211 114.466 268.688 119.48 269.362 124.265C270.036 129.049 270.89 133.275 271.926 136.925C272.962 140.575 274.211 142.597 275.69 142.992V143.995H218.156V142.992C219.701 142.597 220.967 140.558 221.969 136.925C222.972 133.275 223.827 129.066 224.534 124.265C225.241 119.48 225.717 114.466 225.98 109.254C226.243 104.042 226.375 99.5862 226.375 95.9033V48.2065H226.391Z" fill="#FE5668"/>
<path d="M312.529 84.3444C311.987 88.4876 312.661 92.6144 314.535 96.6919C316.409 100.769 319.187 104.469 322.869 107.79C326.551 111.111 331.137 113.742 336.628 115.731C342.118 117.704 348.201 118.691 354.908 118.691C360.135 118.691 365.149 118.066 369.965 116.833C374.782 115.6 379.237 113.857 383.313 111.604C387.39 109.368 391.056 106.655 394.311 103.466C397.549 100.293 400.113 96.7906 401.987 92.9761L408.004 95.4917C404.387 111.358 397.253 123.738 386.568 132.649C375.9 141.561 361.993 146 344.847 146C335.938 146 327.833 144.783 320.502 142.334C313.17 139.884 306.858 136.332 301.581 131.647C296.288 126.961 292.211 121.338 289.334 114.778C286.458 108.217 285.011 100.819 285.011 92.5816C285.011 83.9498 286.589 76.3045 289.729 69.6292C292.869 62.9704 297.389 57.3803 303.274 52.8589C309.159 48.3375 316.326 44.9341 324.759 42.6158C333.192 40.314 342.76 39.1467 353.477 39.1467C368.798 39.1467 380.782 41.4814 389.428 46.1179C398.059 50.7708 402.382 57.4132 402.382 66.045C402.382 71.4049 400.442 76.2716 396.563 80.6615C392.683 85.0513 387.801 88.7507 381.9 91.7595C376.015 94.7683 369.702 97.103 362.979 98.7307C356.256 100.375 350.009 101.197 344.255 101.197C337.696 101.197 331.943 99.9309 326.979 97.3825C322.031 94.834 317.576 90.4935 313.63 84.3279H312.529V84.3444ZM321.373 75.1042C321.373 77.1759 321.587 79.1982 322.031 81.1711C322.474 83.1441 323.231 84.9527 324.332 86.5968C325.433 88.241 326.88 89.5728 328.655 90.6086C330.431 91.6444 332.683 92.1705 335.428 92.1705C338.568 92.1705 341.691 91.4142 344.765 89.918C347.839 88.4218 350.551 86.3831 352.902 83.8511C355.236 81.3027 357.127 78.2939 358.573 74.8083C360.02 71.3227 360.727 67.5083 360.727 63.365C360.727 57.8735 359.395 53.4837 356.716 50.2118C354.036 46.9399 350.486 45.2958 346.08 45.2958C343.203 45.2958 340.294 46.085 337.351 47.6634C334.409 49.2417 331.746 51.3627 329.362 54.0427C326.979 56.7226 325.055 59.863 323.592 63.4801C322.113 67.0972 321.389 70.9774 321.389 75.1207L321.373 75.1042Z" fill="#FE5668"/>
<path d="M426.481 48.2059C426.481 44.4573 426.349 39.9852 426.086 34.8061C425.823 29.627 425.33 24.6124 424.623 19.795C423.916 14.9777 423.061 10.7522 422.059 7.13506C421.056 3.51792 419.79 1.51206 418.245 1.11747V0.0158848H475.369C486.218 0.0158848 495.95 1.01882 504.58 3.02468C513.21 5.03054 520.575 7.94069 526.673 11.7551C532.772 15.5695 537.424 20.2554 540.679 25.8126C543.917 31.3698 545.545 37.7985 545.545 45.0985C545.545 52.3985 544.098 58.153 541.238 63.3814C538.361 68.6098 534.613 72.9504 529.994 76.436C525.375 79.9216 520.213 82.5358 514.542 84.2621C508.854 86.0049 503.232 86.8763 497.676 86.8763C491.725 86.8763 486.251 85.6761 481.27 83.2592C476.273 80.8423 471.752 77.6691 467.659 73.7231V95.9192C467.659 99.6021 467.791 104.058 468.054 109.27C468.317 114.498 468.793 119.496 469.467 124.281C470.141 129.065 470.98 133.291 472.032 136.941C473.067 140.591 474.317 142.613 475.796 143.008V144.011H418.261V143.008C419.807 142.613 421.072 140.574 422.075 136.941C423.078 133.291 423.933 129.082 424.64 124.281C425.346 119.496 425.823 114.482 426.103 109.27C426.366 104.041 426.497 99.6021 426.497 95.9192V48.2224L426.481 48.2059ZM467.643 64.3679C471.062 68.6592 474.399 71.783 477.687 73.756C480.958 75.729 483.917 76.7155 486.514 76.7155C489.391 76.7155 491.889 75.7619 493.994 73.8547C496.098 71.9475 497.84 69.5141 499.221 66.5711C500.585 63.6281 501.637 60.2904 502.328 56.5747C503.035 52.8589 503.38 49.2253 503.38 45.6739C503.38 39.6563 502.492 34.2471 500.717 29.4626C498.942 24.6781 496.459 20.5842 493.287 17.2137C490.114 13.8267 486.333 11.229 481.944 9.38754C477.555 7.54609 472.788 6.62537 467.643 6.62537V64.3679Z" fill="#64A002"/>
<path d="M578.389 84.3444C577.846 88.4876 578.52 92.6144 580.394 96.6919C582.268 100.769 585.046 104.469 588.729 107.79C592.411 111.111 596.997 113.742 602.488 115.731C607.978 117.704 614.06 118.691 620.767 118.691C625.995 118.691 631.009 118.066 635.825 116.833C640.642 115.6 645.096 113.857 649.173 111.604C653.25 109.368 656.916 106.655 660.17 103.466C663.409 100.293 665.973 96.7906 667.847 92.9761L673.864 95.4917C670.247 111.358 663.113 123.738 652.428 132.649C641.759 141.561 627.852 146 610.707 146C601.797 146 593.693 144.783 586.361 142.334C579.03 139.884 572.718 136.332 567.441 131.647C562.148 126.961 558.071 121.338 555.194 114.778C552.317 108.217 550.871 100.819 550.871 92.5816C550.871 83.9498 552.449 76.3045 555.589 69.6292C558.728 62.9704 563.249 57.3803 569.134 52.8589C575.019 48.3375 582.186 44.9341 590.619 42.6158C599.052 40.314 608.619 39.1467 619.337 39.1467C634.658 39.1467 646.642 41.4814 655.288 46.1179C663.918 50.7708 668.242 57.4132 668.242 66.045C668.242 71.4049 666.302 76.2716 662.423 80.6615C658.543 85.0513 653.661 88.7507 647.759 91.7595C641.874 94.7683 635.562 97.103 628.839 98.7307C622.115 100.375 615.869 101.197 610.115 101.197C603.556 101.197 597.803 99.9309 592.838 97.3825C587.89 94.834 583.435 90.4935 579.49 84.3279H578.389V84.3444ZM587.216 75.1042C587.216 77.1759 587.43 79.1982 587.874 81.1711C588.318 83.1441 589.074 84.9527 590.175 86.5968C591.277 88.241 592.723 89.5728 594.499 90.6086C596.274 91.6444 598.526 92.1705 601.271 92.1705C604.411 92.1705 607.534 91.4142 610.608 89.918C613.682 88.4218 616.395 86.3831 618.745 83.8511C621.08 81.3027 622.97 78.2939 624.417 74.8083C625.863 71.3227 626.57 67.5083 626.57 63.365C626.57 57.8735 625.239 53.4837 622.559 50.2118C619.88 46.9399 616.329 45.2958 611.923 45.2958C609.047 45.2958 606.137 46.085 603.195 47.6634C600.252 49.2417 597.589 51.3627 595.205 54.0427C592.822 56.7226 590.899 59.863 589.436 63.4801C587.956 67.0972 587.233 70.9774 587.233 75.1207L587.216 75.1042Z" fill="#64A002"/>
<path d="M731.892 41.17H750.566V47.3027H731.892V108.662C731.892 115.354 732.911 120.566 734.949 124.282C736.988 127.998 739.782 129.855 743.333 129.855C746.078 129.855 748.823 128.721 751.569 126.436C754.314 124.167 756.385 120.484 757.799 115.387L761.514 118.905C760.38 123.049 758.506 126.699 755.892 129.855C753.278 132.996 750.303 135.626 746.949 137.731C743.596 139.835 739.897 141.414 735.853 142.45C731.81 143.485 727.815 144.012 723.853 144.012C713.546 144.012 705.442 140.97 699.557 134.87C693.672 128.787 690.73 120.385 690.73 109.665V47.3027H682.1V41.17H690.73C693.475 41.17 696.763 40.1178 700.626 38.0133C704.472 35.9087 708.335 33.3274 712.215 30.2857C716.094 27.2441 719.694 23.9722 723.015 20.503C726.336 17.0175 728.719 13.9758 730.199 11.3616H731.908V41.1865L731.892 41.17Z" fill="#64A002"/>
<path d="M844.939 126.929C844.939 122.851 843.197 119.464 839.712 116.784C836.227 114.104 831.838 111.671 826.561 109.451C821.284 107.232 815.547 105.111 809.399 103.072C803.235 101.033 797.514 98.5999 792.238 95.7884C786.944 92.9769 782.555 89.5406 779.037 85.496C775.52 81.4514 773.761 76.4039 773.761 70.3863C773.761 60.7516 778.429 53.1391 787.766 47.549C797.103 41.9589 809.876 39.1639 826.068 39.1639C839.449 39.1639 850.43 41.1697 858.994 45.1815C867.559 49.1932 874.249 54.9148 879.066 62.3464L848.441 79.4127H846.731C847.191 67.4926 845.926 58.8279 842.917 53.4022C839.909 47.9765 835.158 45.2637 828.665 45.2637C824.309 45.2637 820.775 46.3488 818.03 48.5191C815.284 50.6894 813.92 53.6653 813.92 57.4139C813.92 61.4914 815.662 64.9441 819.147 67.7556C822.632 70.5671 827.021 73.0827 832.298 75.2859C837.575 77.489 843.312 79.6593 849.46 81.7638C855.624 83.8683 861.345 86.3017 866.622 89.0474C871.915 91.7931 876.288 95.1143 879.773 99.0438C883.258 102.957 885 107.873 885 113.759C885 118.708 883.619 123.213 880.874 127.257C878.129 131.302 874.266 134.689 869.285 137.402C864.304 140.115 858.271 142.219 851.219 143.732C844.15 145.244 836.375 145.984 827.876 145.984C812.819 145.984 800.407 143.83 790.676 139.506C780.944 135.182 773.251 129.609 767.629 122.785L798.846 104.108H800.555C799.684 127.948 808.051 139.852 825.657 139.852C831.279 139.852 835.898 138.717 839.515 136.432C843.131 134.163 844.939 130.973 844.939 126.896V126.929Z" fill="#64A002"/>
</svg>
